<?xml version="1.0" encoding="UTF-8"?>
<svg width="20px" height="22px" viewBox="0 0 20 22" version="1.1" xmlns="http://www.w3.org/2000/svg" xmlns:xlink="http://www.w3.org/1999/xlink">
    <title>Icon</title>
    <desc>Created with Sketch.</desc>
    <defs>
        <path d="M16,25 C20.418278,25 24,21.418278 24,17 C24,12.581722 20.418278,9 16,9 C11.581722,9 8,12.581722 8,17 C8,21.418278 11.581722,25 16,25 Z M15.1001158,7.03994098 C15.035453,6.87240331 15,6.69034191 15,6.5 C15,5.67157288 15.6715729,5 16.5,5 C17.3284271,5 18,5.67157288 18,6.5 C18,6.74057021 17.9433672,6.96791311 17.8427062,7.16942401 C22.4853249,8.03423197 26,12.1066678 26,17 C26,22.5228475 21.5228475,27 16,27 C10.4771525,27 6,22.5228475 6,17 C6,11.7804572 9.9989016,7.49490784 15.1001158,7.03994098 L15.1001158,7.03994098 Z M22.6516504,6.53033009 L24.4194174,8.29809704 C24.7123106,8.59099026 24.7123106,9.06586399 24.4194174,9.35875721 C24.1265242,9.65165043 23.6516504,9.65165043 23.3587572,9.35875721 L21.5909903,7.59099026 C21.298097,7.29809704 21.298097,6.8232233 21.5909903,6.53033009 C21.8838835,6.23743687 22.3587572,6.23743687 22.6516504,6.53033009 Z M9.35875721,6.53033009 C9.65165043,6.23743687 10.1265242,6.23743687 10.4194174,6.53033009 C10.7123106,6.8232233 10.7123106,7.29809704 10.4194174,7.59099026 L8.65165043,9.35875721 C8.35875721,9.65165043 7.88388348,9.65165043 7.59099026,9.35875721 C7.29809704,9.06586399 7.29809704,8.59099026 7.59099026,8.29809704 L9.35875721,6.53033009 Z M19.9112283,12.9142742 C20.3085087,13.2979234 20.319559,13.930992 19.9359098,14.3282724 L16.4139982,17.9753186 C16.0303489,18.372599 15.3972804,18.3836492 15,18 C14.6027196,17.6163508 14.5916693,16.9832822 14.9753186,16.5860018 L18.4972302,12.9389556 C18.8808794,12.5416752 19.5139479,12.530625 19.9112283,12.9142742 Z" id="path-1"></path>
    </defs>
    <g id="Symbols" stroke="none" stroke-width="1" fill="none" fill-rule="evenodd">
        <g id="Icons-/-Time" transform="translate(-6.000000, -5.000000)">
            <mask id="mask-2" fill="white">
                <use xlink:href="#path-1"></use>
            </mask>
            <use id="Glyph" fill="#000000" fill-rule="nonzero" xlink:href="#path-1"></use>
            <g id="Colors-/-Green" style="mix-blend-mode: screen;" mask="url(#mask-2)" fill="#10D4A3" fill-rule="evenodd">
                <rect id="Colors-/-White" x="0" y="0" width="32" height="32"></rect>
            </g>
        </g>
    </g>
</svg>