<?xml version="1.0" encoding="UTF-8"?>
<svg width="14px" height="9px" viewBox="0 0 14 9" version="1.1" xmlns="http://www.w3.org/2000/svg" xmlns:xlink="http://www.w3.org/1999/xlink">
    <title>Icon</title>
    <desc>Created with Sketch.</desc>
    <defs>
        <path d="M6.67316186,10.8761795 L8.66969528,10.8761795 C8.91340765,10.1708582 9.58325994,9.66428571 10.3714286,9.66428571 C10.7583769,9.66428571 11.1168077,9.78638391 11.4102956,9.99415499 L13.0242689,8.18477262 C12.8636831,7.91543971 12.7714286,7.60063631 12.7714286,7.26428571 C12.7714286,6.27017316 13.577316,5.46428571 14.5714286,5.46428571 C15.5655411,5.46428571 16.3714286,6.27017316 16.3714286,7.26428571 C16.3714286,8.25839826 15.5655411,9.06428571 14.5714286,9.06428571 C14.3462985,9.06428571 14.1308217,9.02295526 13.9321719,8.94746807 L12.1087411,10.9916677 C12.1496159,11.1422788 12.1714286,11.300735 12.1714286,11.4642857 C12.1714286,12.4583983 11.3655411,13.2642857 10.3714286,13.2642857 C9.40243956,13.2642857 8.6122821,12.4986169 8.57296274,11.5392857 C8.57194328,11.5641589 8.57142857,11.5891622 8.57142857,11.6142857 C8.57142857,11.7696705 8.59111742,11.9204567 8.62813644,12.0642857 L6.66900515,12.0642857 C6.4219033,12.7634011 5.75515987,13.2642857 4.97142857,13.2642857 C3.97731602,13.2642857 3.17142857,12.4583983 3.17142857,11.4642857 C3.17142857,10.4701732 3.97731602,9.66428571 4.97142857,9.66428571 C5.7595972,9.66428571 6.4294495,10.1708582 6.67316186,10.8761795 L6.67316186,10.8761795 Z M10.3714286,12.0642857 C10.7027994,12.0642857 10.9714286,11.7956566 10.9714286,11.4642857 C10.9714286,11.1329149 10.7027994,10.8642857 10.3714286,10.8642857 C10.0400577,10.8642857 9.77142857,11.1329149 9.77142857,11.4642857 C9.77142857,11.7956566 10.0400577,12.0642857 10.3714286,12.0642857 Z M14.5714286,7.86428571 C14.9027994,7.86428571 15.1714286,7.59565656 15.1714286,7.26428571 C15.1714286,6.93291486 14.9027994,6.66428571 14.5714286,6.66428571 C14.2400577,6.66428571 13.9714286,6.93291486 13.9714286,7.26428571 C13.9714286,7.59565656 14.2400577,7.86428571 14.5714286,7.86428571 Z M4.97142857,12.0642857 C5.30279942,12.0642857 5.57142857,11.7956566 5.57142857,11.4642857 C5.57142857,11.1329149 5.30279942,10.8642857 4.97142857,10.8642857 C4.64005772,10.8642857 4.37142857,11.1329149 4.37142857,11.4642857 C4.37142857,11.7956566 4.64005772,12.0642857 4.97142857,12.0642857 Z" id="path-1"></path>
    </defs>
    <g id="Symbols" stroke="none" stroke-width="1" fill="none" fill-rule="evenodd">
        <g id="List-/-Parking-Small" transform="translate(-179.000000, -71.000000)">
            <g id="Icons-/-Ascent" transform="translate(176.000000, 66.000000)">
                <mask id="mask-2" fill="white">
                    <use xlink:href="#path-1"></use>
                </mask>
                <use id="Glyph" fill="#000000" fill-rule="nonzero" xlink:href="#path-1"></use>
                <g id="Colors-/-Green" style="mix-blend-mode: screen;" mask="url(#mask-2)" fill="#0A2463" fill-rule="nonzero">
                    <rect id="Colors-/-White" x="0" y="0" width="19" height="19"></rect>
                </g>
            </g>
        </g>
    </g>
</svg>